<?xml version="1.0" encoding="UTF-8"?>
<svg id="Layer_1" xmlns="http://www.w3.org/2000/svg" version="1.1" viewBox="0 0 1200 1200">
  <!-- Generator: Adobe Illustrator 29.8.2, SVG Export Plug-In . SVG Version: 2.1.1 Build 3)  -->
  <defs>
    <style>
      .st0 {
        fill: #fff;
      }

      .st1 {
        fill: #f7931e;
      }
    </style>
  </defs>
  <circle class="st0" cx="600" cy="602.5" r="572.8"/>
  <path class="st1" d="M600,1199.6c-80.9,0-159.5-15.9-233.4-47.1-71.4-30.2-135.5-73.4-190.6-128.5s-98.3-119.2-128.5-190.6C16.3,759.5.4,680.9.4,600s15.9-159.5,47.1-233.4c30.2-71.4,73.4-135.5,128.5-190.6s119.2-98.3,190.6-128.5C440.5,16.3,519.1.4,600,.4s159.5,15.9,233.4,47.1c71.4,30.2,135.5,73.4,190.6,128.5s98.3,119.2,128.5,190.6c31.3,73.9,47.1,152.5,47.1,233.4s-15.9,159.5-47.1,233.4c-30.2,71.4-73.4,135.5-128.5,190.6s-119.2,98.3-190.6,128.5c-73.9,31.3-152.5,47.1-233.4,47.1ZM600,51.4C297.5,51.4,51.4,297.5,51.4,600s246.1,548.6,548.6,548.6,548.6-246.1,548.6-548.6S902.5,51.4,600,51.4Z"/>
  <path class="st1" d="M335.6,732c-.3-.5-.3-.7,0-1.1,19.7-18.2,61-56.3,74.9-69.1,1-.9,1.2-1.6,2.4-.5.9.8,1.7,1.5,2.7,2.5,41.3,40,85.5,62.9,145.7,80.3,28.9,8.8,70.9,13.6,92.1-9.8,4.5-5,7.4-10.6,9.2-16.9,6.5-21.6-2.2-37.4-19.4-51.1-67.6-47.5-187.3-66.6-215.4-161.7-33.9-136.9,75.8-238.7,250.9-184.1,64.7,20.5,117.9,46.5,162.6,94-4.8,6.2-59.4,74.9-65.5,82.6-.3.4-.5.5-1.1.2-29.3-28.5-55.3-47.5-84.9-59.4-17.3-7.1-36.6-14.1-55.2-18.3-32.6-7.2-79-9.2-87.4,24.4-23.2,92.5,227.7,93.8,237,239.1,9.1,142.6-107.2,208.8-275.7,154.3-65.8-19.3-137.2-57.6-172.8-105.3h0Z"/>
  <circle class="st1" cx="697.5" cy="209.5" r="61.9"/>
  <circle class="st1" cx="514.1" cy="954.4" r="61.9"/>
</svg>